<?xml version="1.0" encoding="iso-8859-1"?>
<!-- Generator: Adobe Illustrator 16.0.0, SVG Export Plug-In . SVG Version: 6.00 Build 0)  -->
<!DOCTYPE svg PUBLIC "-//W3C//DTD SVG 1.1//EN" "http://www.w3.org/Graphics/SVG/1.1/DTD/svg11.dtd">
<svg version="1.1" id="Capa_1" xmlns="http://www.w3.org/2000/svg" xmlns:xlink="http://www.w3.org/1999/xlink" x="0px" y="0px"
	 width="612px" height="612px" viewBox="0 0 612 612" style="enable-background:new 0 0 612 612;" xml:space="preserve">
<g>
	<g>
		<g id="group-43svg">
			<path id="path-1_38_" d="M568.286,519.714c0,50.972-41.316,92.286-92.287,92.286H136c-50.971,0-92.286-41.314-92.286-92.286
				V92.286C43.714,41.315,85.029,0,136,0h340c50.971,0,92.287,41.315,92.287,92.286V519.714z M539.142,92.286
				c0-34.874-28.268-63.143-63.143-63.143H136c-34.875,0-63.143,28.269-63.143,63.143v427.428c0,34.875,28.269,63.144,63.143,63.144
				h340c34.875,0,63.143-28.269,63.143-63.144V92.286z"/>
			<path id="path-2_38_" d="M78.423,495.429H58.994c-8.043,0-14.571-6.528-14.571-14.571c0-8.044,6.528-14.571,14.571-14.571h19.429
				c8.043,0,14.571,6.527,14.571,14.571C92.994,488.9,86.466,495.429,78.423,495.429z"/>
			<path id="path-3_37_" d="M525.28,495.429H78.423c-8.063,0-14.571-6.509-14.571-14.571c0-8.063,6.508-14.571,14.571-14.571H525.28
				c8.062,0,14.57,6.508,14.57,14.571C539.851,488.92,533.343,495.429,525.28,495.429z"/>
			<path id="path-4_22_" d="M544.708,495.429H525.28c-8.043,0-14.572-6.528-14.572-14.571c0-8.044,6.529-14.571,14.572-14.571
				h19.428c8.045,0,14.572,6.527,14.572,14.571C559.28,488.9,552.753,495.429,544.708,495.429z"/>
			<path id="path-5_10_" d="M486.423,145.714H301.852c-8.043,0-14.571-6.528-14.571-14.572c0-8.043,6.528-14.571,14.571-14.571
				h184.571c8.043,0,14.572,6.528,14.572,14.571C500.995,139.187,494.466,145.714,486.423,145.714z"/>
			<path id="path-6_2_" d="M486.423,204H301.852c-8.043,0-14.571-6.528-14.571-14.571s6.528-14.571,14.571-14.571h184.571
				c8.043,0,14.572,6.528,14.572,14.571S494.466,204,486.423,204z"/>
		</g>
	</g>
</g>
</svg>
