<svg width="16" height="16" viewBox="0 0 16 16" fill="none" xmlns="http://www.w3.org/2000/svg">
<g clip-path="url(#clip0_266_19)">
<path d="M0.128188 6.08C0.309521 6.77333 0.656187 7.376 1.16819 7.888L8.00019 14.96L14.8322 7.888C15.3442 7.376 15.6909 6.77333 15.8722 6.08C16.0535 5.38667 16.0535 4.69867 15.8722 4.016C15.6909 3.33333 15.3442 2.736 14.8322 2.224C14.3202 1.712 13.7229 1.36533 13.0402 1.184C12.3575 1.00267 11.6642 1.00267 10.9602 1.184C10.2562 1.36533 9.65885 1.712 9.16819 2.224L8.00019 3.632L6.83219 2.224C6.32019 1.712 5.72285 1.36533 5.04019 1.184C4.35752 1.00267 3.66952 1.00267 2.97619 1.184C2.28285 1.36533 1.68019 1.712 1.16819 2.224C0.656187 2.736 0.309521 3.33333 0.128188 4.016C-0.0531458 4.69867 -0.0531458 5.38667 0.128188 6.08Z" fill="#001B48"/>
</g>
<defs>
<clipPath id="clip0_266_19">
<rect width="16" height="16" fill="white"/>
</clipPath>
</defs>
</svg>
