<svg width="16" height="16" viewBox="0 0 16 16" fill="none" xmlns="http://www.w3.org/2000/svg">
<g clip-path="url(#clip0_266_22)">
<path d="M14.7667 3.33333C14.5649 3.12566 14.2895 3.00589 14 3H3.83333L3.7 1.86667C3.66752 1.62518 3.54799 1.40385 3.36385 1.24427C3.17972 1.08469 2.94365 0.997826 2.7 1H1.66667C1.48986 1 1.32029 1.07024 1.19526 1.19526C1.07024 1.32029 1 1.48986 1 1.66667C1 1.84348 1.07024 2.01305 1.19526 2.13807C1.32029 2.2631 1.48986 2.33333 1.66667 2.33333H2.4L3.46667 11.3C3.17126 11.4744 2.92663 11.7231 2.75705 12.0213C2.58748 12.3196 2.49886 12.6569 2.5 13C2.5 13.5304 2.71071 14.0391 3.08579 14.4142C3.46086 14.7893 3.96957 15 4.5 15C4.91379 14.9935 5.31611 14.863 5.65487 14.6253C5.99362 14.3875 6.2532 14.0536 6.4 13.6667H9.93333C10.0801 14.0536 10.3397 14.3875 10.6785 14.6253C11.0172 14.863 11.4195 14.9935 11.8333 15C12.3638 15 12.8725 14.7893 13.2475 14.4142C13.6226 14.0391 13.8333 13.5304 13.8333 13C13.8333 12.4696 13.6226 11.9609 13.2475 11.5858C12.8725 11.2107 12.3638 11 11.8333 11C11.4195 11.0065 11.0172 11.137 10.6785 11.3747C10.3397 11.6125 10.0801 11.9464 9.93333 12.3333H6.4C6.27387 11.9872 6.05461 11.6827 5.7664 11.4533C5.47819 11.2239 5.13223 11.0786 4.76667 11.0333L4.7 10.3333H13.1333C13.3712 10.3275 13.5993 10.2371 13.7764 10.0782C13.9536 9.91935 14.0683 9.70252 14.1 9.46667L15 4.2C15.0373 3.89181 14.9536 3.58117 14.7667 3.33333ZM12.5 13C12.5 13.1319 12.4609 13.2607 12.3876 13.3704C12.3144 13.48 12.2103 13.5655 12.0885 13.6159C11.9666 13.6664 11.8326 13.6796 11.7033 13.6539C11.574 13.6281 11.4552 13.5646 11.3619 13.4714C11.2687 13.3782 11.2052 13.2594 11.1795 13.1301C11.1538 13.0007 11.167 12.8667 11.2174 12.7449C11.2679 12.6231 11.3533 12.5189 11.463 12.4457C11.5726 12.3724 11.7015 12.3333 11.8333 12.3333C12.0101 12.3333 12.1797 12.4036 12.3047 12.5286C12.4298 12.6536 12.5 12.8232 12.5 13ZM5.16667 13C5.16667 13.1319 5.12757 13.2607 5.05431 13.3704C4.98106 13.48 4.87694 13.5655 4.75512 13.6159C4.6333 13.6664 4.49926 13.6796 4.36994 13.6539C4.24062 13.6281 4.12183 13.5646 4.0286 13.4714C3.93536 13.3782 3.87187 13.2594 3.84614 13.1301C3.82042 13.0007 3.83362 12.8667 3.88408 12.7449C3.93454 12.6231 4.01999 12.5189 4.12962 12.4457C4.23925 12.3724 4.36815 12.3333 4.5 12.3333C4.67681 12.3333 4.84638 12.4036 4.9714 12.5286C5.09643 12.6536 5.16667 12.8232 5.16667 13Z" fill="white"/>
</g>
<defs>
<clipPath id="clip0_266_22">
<rect width="16" height="16" fill="white"/>
</clipPath>
</defs>
</svg>
