<svg width="235" height="51" viewBox="0 0 235 51" fill="none" xmlns="http://www.w3.org/2000/svg">
<path d="M79.737 34.237C78.917 34.893 77.7963 35.4533 76.375 35.918C74.981 36.3553 73.4913 36.574 71.906 36.574C68.5987 36.574 66.1797 35.6173 64.649 33.704C63.1183 31.7633 62.353 29.112 62.353 25.75C62.353 22.142 63.214 19.436 64.936 17.632C66.658 15.828 69.077 14.926 72.193 14.926C73.2317 14.926 74.243 15.0627 75.227 15.336C76.211 15.6093 77.0857 16.0603 77.851 16.689C78.6163 17.3177 79.2313 18.165 79.696 19.231C80.1607 20.297 80.393 21.6227 80.393 23.208C80.393 23.782 80.352 24.397 80.27 25.053C80.2153 25.709 80.1197 26.3923 79.983 27.103H67.683C67.765 28.825 68.2023 30.1233 68.995 30.998C69.815 31.8727 71.127 32.31 72.931 32.31C74.0517 32.31 75.0493 32.146 75.924 31.818C76.826 31.4627 77.5093 31.1073 77.974 30.752L79.737 34.237ZM72.111 19.19C70.717 19.19 69.6783 19.6137 68.995 20.461C68.339 21.281 67.9427 22.388 67.806 23.782H75.432C75.5413 22.306 75.309 21.1717 74.735 20.379C74.1883 19.5863 73.3137 19.19 72.111 19.19ZM89.6513 29.112C89.6513 30.0687 89.7743 30.7657 90.0203 31.203C90.2663 31.6403 90.6626 31.859 91.2093 31.859C91.5373 31.859 91.8516 31.8317 92.1523 31.777C92.4803 31.7223 92.8766 31.5993 93.3413 31.408L93.9153 35.59C93.478 35.8087 92.8083 36.0273 91.9063 36.246C91.0043 36.4647 90.075 36.574 89.1183 36.574C87.5603 36.574 86.3713 36.2187 85.5513 35.508C84.7313 34.77 84.3213 33.5673 84.3213 31.9V7.3H89.6513V29.112ZM112.609 34.237C111.789 34.893 110.668 35.4533 109.247 35.918C107.853 36.3553 106.363 36.574 104.778 36.574C101.471 36.574 99.0517 35.6173 97.5211 33.704C95.9904 31.7633 95.2251 29.112 95.2251 25.75C95.2251 22.142 96.0861 19.436 97.8081 17.632C99.5301 15.828 101.949 14.926 105.065 14.926C106.104 14.926 107.115 15.0627 108.099 15.336C109.083 15.6093 109.958 16.0603 110.723 16.689C111.488 17.3177 112.103 18.165 112.568 19.231C113.033 20.297 113.265 21.6227 113.265 23.208C113.265 23.782 113.224 24.397 113.142 25.053C113.087 25.709 112.992 26.3923 112.855 27.103H100.555C100.637 28.825 101.074 30.1233 101.867 30.998C102.687 31.8727 103.999 32.31 105.803 32.31C106.924 32.31 107.921 32.146 108.796 31.818C109.698 31.4627 110.381 31.1073 110.846 30.752L112.609 34.237ZM104.983 19.19C103.589 19.19 102.55 19.6137 101.867 20.461C101.211 21.281 100.815 22.388 100.678 23.782H108.304C108.413 22.306 108.181 21.1717 107.607 20.379C107.06 19.5863 106.186 19.19 104.983 19.19ZM131.343 34.729C130.523 35.3303 129.526 35.7813 128.35 36.082C127.202 36.41 126.013 36.574 124.783 36.574C123.143 36.574 121.749 36.3143 120.601 35.795C119.481 35.2757 118.565 34.5513 117.854 33.622C117.144 32.6653 116.624 31.5173 116.296 30.178C115.996 28.8387 115.845 27.3627 115.845 25.75C115.845 22.2787 116.624 19.6137 118.182 17.755C119.74 15.869 122.009 14.926 124.988 14.926C126.492 14.926 127.694 15.049 128.596 15.295C129.526 15.541 130.359 15.8553 131.097 16.238L129.826 20.584C129.198 20.2833 128.569 20.051 127.94 19.887C127.339 19.723 126.642 19.641 125.849 19.641C124.373 19.641 123.253 20.133 122.487 21.117C121.722 22.0737 121.339 23.618 121.339 25.75C121.339 26.6247 121.435 27.431 121.626 28.169C121.818 28.907 122.105 29.5493 122.487 30.096C122.87 30.6427 123.362 31.08 123.963 31.408C124.592 31.7087 125.316 31.859 126.136 31.859C127.038 31.859 127.804 31.7497 128.432 31.531C129.061 31.285 129.621 30.998 130.113 30.67L131.343 34.729ZM132.434 15.5H135.263V11.646L140.593 10.129V15.5H145.595V20.01H140.593V27.882C140.593 29.3033 140.73 30.3283 141.003 30.957C141.304 31.5583 141.851 31.859 142.643 31.859C143.19 31.859 143.655 31.8043 144.037 31.695C144.447 31.5857 144.898 31.4217 145.39 31.203L146.333 35.303C145.595 35.6583 144.734 35.959 143.75 36.205C142.766 36.451 141.769 36.574 140.757 36.574C138.871 36.574 137.477 36.0957 136.575 35.139C135.701 34.155 135.263 32.556 135.263 30.342V20.01H132.434V15.5ZM160.176 20.502C159.329 20.2013 158.564 20.051 157.88 20.051C156.924 20.051 156.117 20.3107 155.461 20.83C154.833 21.322 154.409 21.9643 154.19 22.757V36H148.86V15.5H153.001L153.616 18.206H153.78C154.245 17.1947 154.874 16.4157 155.666 15.869C156.459 15.3223 157.388 15.049 158.454 15.049C159.165 15.049 159.971 15.1993 160.873 15.5L160.176 20.502ZM162.25 25.75C162.25 22.2787 163.098 19.6137 164.792 17.755C166.487 15.869 168.865 14.926 171.926 14.926C173.566 14.926 174.988 15.1857 176.19 15.705C177.393 16.2243 178.391 16.9623 179.183 17.919C179.976 18.8483 180.564 19.9827 180.946 21.322C181.356 22.6613 181.561 24.1373 181.561 25.75C181.561 29.2213 180.714 31.9 179.019 33.786C177.352 35.6447 174.988 36.574 171.926 36.574C170.286 36.574 168.865 36.3143 167.662 35.795C166.46 35.2757 165.448 34.5513 164.628 33.622C163.836 32.6653 163.234 31.5173 162.824 30.178C162.442 28.8387 162.25 27.3627 162.25 25.75ZM167.744 25.75C167.744 26.652 167.826 27.4857 167.99 28.251C168.154 29.0163 168.4 29.686 168.728 30.26C169.056 30.834 169.48 31.285 169.999 31.613C170.546 31.9137 171.188 32.064 171.926 32.064C173.32 32.064 174.359 31.5583 175.042 30.547C175.726 29.5357 176.067 27.9367 176.067 25.75C176.067 23.864 175.753 22.347 175.124 21.199C174.496 20.0237 173.43 19.436 171.926 19.436C170.614 19.436 169.589 19.928 168.851 20.912C168.113 21.896 167.744 23.5087 167.744 25.75ZM197.802 36V24.356C197.802 22.6887 197.556 21.486 197.064 20.748C196.599 20.01 195.793 19.641 194.645 19.641C193.634 19.641 192.773 19.9417 192.062 20.543C191.379 21.117 190.887 21.8413 190.586 22.716V36H185.256V15.5H189.479L190.094 18.206H190.258C190.887 17.3313 191.72 16.566 192.759 15.91C193.798 15.254 195.137 14.926 196.777 14.926C197.788 14.926 198.69 15.0627 199.483 15.336C200.276 15.6093 200.945 16.0603 201.492 16.689C202.039 17.3177 202.449 18.1787 202.722 19.272C202.995 20.338 203.132 21.6637 203.132 23.249V36H197.802ZM208.049 15.5H213.379V36H208.049V15.5ZM207.27 9.719C207.27 8.92633 207.557 8.25667 208.131 7.71C208.732 7.136 209.552 6.849 210.591 6.849C211.629 6.849 212.463 7.136 213.092 7.71C213.748 8.25667 214.076 8.92633 214.076 9.719C214.076 10.5117 213.748 11.1813 213.092 11.728C212.463 12.2473 211.629 12.507 210.591 12.507C209.552 12.507 208.732 12.2473 208.131 11.728C207.557 11.1813 207.27 10.5117 207.27 9.719ZM233.122 34.729C232.302 35.3303 231.305 35.7813 230.129 36.082C228.981 36.41 227.792 36.574 226.562 36.574C224.922 36.574 223.528 36.3143 222.38 35.795C221.26 35.2757 220.344 34.5513 219.633 33.622C218.923 32.6653 218.403 31.5173 218.075 30.178C217.775 28.8387 217.624 27.3627 217.624 25.75C217.624 22.2787 218.403 19.6137 219.961 17.755C221.519 15.869 223.788 14.926 226.767 14.926C228.271 14.926 229.473 15.049 230.375 15.295C231.305 15.541 232.138 15.8553 232.876 16.238L231.605 20.584C230.977 20.2833 230.348 20.051 229.719 19.887C229.118 19.723 228.421 19.641 227.628 19.641C226.152 19.641 225.032 20.133 224.266 21.117C223.501 22.0737 223.118 23.618 223.118 25.75C223.118 26.6247 223.214 27.431 223.405 28.169C223.597 28.907 223.884 29.5493 224.266 30.096C224.649 30.6427 225.141 31.08 225.742 31.408C226.371 31.7087 227.095 31.859 227.915 31.859C228.817 31.859 229.583 31.7497 230.211 31.531C230.84 31.285 231.4 30.998 231.892 30.67L233.122 34.729Z" fill="url(#paint0_linear_35_504)"/>
<rect width="51" height="51" rx="13" fill="url(#paint1_linear_35_504)"/>
<path d="M39.175 24.2281C39.1 23.8656 38.8 23.5938 38.5 23.5938H34L36.925 12.9906C37 12.6281 36.925 12.175 36.625 11.9938C36.325 11.7219 36.025 11.8125 35.725 11.9938L22.975 23.775C22.75 24.0469 22.6 24.4094 22.75 24.7719C22.9 25.1344 23.2 25.4063 23.5 25.4063H28L25.075 36.0094C25 36.3719 25.075 36.825 25.375 37.0063C25.45 37.0969 25.6 37.1875 25.75 37.1875C25.9 37.1875 26.05 37.0969 26.2 37.0063L38.95 25.225C39.175 24.9531 39.325 24.5906 39.175 24.2281Z" fill="white"/>
<rect x="13" y="32" width="9" height="3" rx="1.5" fill="white" fill-opacity="0.33"/>
<rect x="8" y="24" width="9" height="3" rx="1.5" fill="white" fill-opacity="0.33"/>
<rect x="13" y="15" width="9" height="3" rx="1.5" fill="white" fill-opacity="0.33"/>
<defs>
<linearGradient id="paint0_linear_35_504" x1="92.1368" y1="12.3898" x2="192.402" y2="13.8891" gradientUnits="userSpaceOnUse">
<stop stop-color="#676DFF"/>
<stop offset="1" stop-color="#B268FF"/>
</linearGradient>
<linearGradient id="paint1_linear_35_504" x1="3.69388e-07" y1="25" x2="49.5" y2="25" gradientUnits="userSpaceOnUse">
<stop stop-color="#676DFF"/>
<stop offset="1" stop-color="#B268FF"/>
</linearGradient>
</defs>
</svg>
